<svg width="274" height="53" viewBox="0 0 274 53" fill="none" xmlns="http://www.w3.org/2000/svg">
<path d="M35.3421 10.0789H50.5M42.9211 2.5V17.6579M47.9737 26.5V45.4474C47.9737 46.7874 47.4414 48.0726 46.4938 49.0201C45.5462 49.9677 44.2611 50.5 42.9211 50.5H7.55263C6.21259 50.5 4.92743 49.9677 3.97988 49.0201C3.03233 48.0726 2.5 46.7874 2.5 45.4474V10.0789C2.5 8.73891 3.03233 7.45375 3.97988 6.5062C4.92743 5.55864 6.21259 5.02632 7.55263 5.02632H26.5M47.9737 35.3421L40.1775 27.5459C39.23 26.5987 37.945 26.0666 36.6053 26.0666C35.2655 26.0666 33.9806 26.5987 33.0331 27.5459L10.0789 50.5M22.7105 20.1842C22.7105 22.9747 20.4484 25.2368 17.6579 25.2368C14.8674 25.2368 12.6053 22.9747 12.6053 20.1842C12.6053 17.3937 14.8674 15.1316 17.6579 15.1316C20.4484 15.1316 22.7105 17.3937 22.7105 20.1842Z" stroke="#3B82F6" stroke-width="5" stroke-linecap="round" stroke-linejoin="round"/>
<path d="M70.5 41.3865V12.2956H88.5398V16.074H74.8892V24.9377H87.2472V28.7019H74.8892V41.3865H70.5Z" fill="#0a0a0a"/>
<path d="M98.6679 41.8695C97.2853 41.8695 96.0353 41.6138 94.9179 41.1025C93.8005 40.5816 92.9151 39.8288 92.2616 38.8439C91.6177 37.8591 91.2957 36.6517 91.2957 35.2218C91.2957 33.9907 91.5325 32.9774 92.006 32.182C92.4794 31.3865 93.1187 30.7568 93.9236 30.2928C94.7285 29.8288 95.6281 29.4784 96.6224 29.2417C97.6168 29.0049 98.63 28.825 99.6622 28.7019C100.969 28.5504 102.03 28.4273 102.844 28.3326C103.658 28.2284 104.25 28.0627 104.62 27.8354C104.989 27.6081 105.174 27.2388 105.174 26.7275V26.628C105.174 25.3875 104.823 24.4263 104.122 23.7445C103.431 23.0627 102.399 22.7218 101.026 22.7218C99.5959 22.7218 98.469 23.039 97.6452 23.6735C96.8308 24.2985 96.2673 24.9945 95.9548 25.7615L91.9634 24.8525C92.4368 23.5267 93.1281 22.4566 94.0372 21.6422C94.9558 20.8184 96.0116 20.2218 97.2048 19.8524C98.398 19.4737 99.6527 19.2843 100.969 19.2843C101.84 19.2843 102.764 19.3884 103.739 19.5968C104.724 19.7956 105.642 20.1649 106.495 20.7047C107.356 21.2445 108.062 22.0163 108.611 23.0201C109.16 24.0144 109.435 25.307 109.435 26.8979V41.3865H105.287V38.4036H105.117C104.842 38.9528 104.43 39.4926 103.881 40.0229C103.332 40.5532 102.626 40.9935 101.764 41.3439C100.903 41.6943 99.8705 41.8695 98.6679 41.8695ZM99.5912 38.4604C100.765 38.4604 101.769 38.2284 102.603 37.7644C103.445 37.3004 104.085 36.6943 104.52 35.9462C104.965 35.1886 105.188 34.379 105.188 33.5172V30.7047C105.036 30.8562 104.743 30.9983 104.307 31.1309C103.881 31.254 103.393 31.3629 102.844 31.4576C102.295 31.5428 101.76 31.6233 101.239 31.699C100.718 31.7653 100.282 31.8221 99.9321 31.8695C99.1082 31.9737 98.3554 32.1489 97.6736 32.3951C97.0012 32.6413 96.4615 32.9964 96.0543 33.4604C95.6565 33.915 95.4577 34.521 95.4577 35.2786C95.4577 36.3297 95.8459 37.1252 96.6224 37.665C97.399 38.1953 98.3885 38.4604 99.5912 38.4604Z" fill="#0a0a0a"/>
<path d="M131.775 19.5684L123.863 41.3865H119.318L111.392 19.5684H115.952L121.477 36.3581H121.704L127.216 19.5684H131.775Z" fill="#0a0a0a"/>
<path d="M134.567 41.3865V19.5684H138.814V41.3865H134.567ZM136.712 16.2019C135.973 16.2019 135.339 15.9557 134.808 15.4632C134.288 14.9614 134.027 14.3648 134.027 13.6735C134.027 12.9727 134.288 12.3761 134.808 11.8837C135.339 11.3818 135.973 11.1309 136.712 11.1309C137.45 11.1309 138.08 11.3818 138.601 11.8837C139.131 12.3761 139.396 12.9727 139.396 13.6735C139.396 14.3648 139.131 14.9614 138.601 15.4632C138.08 15.9557 137.45 16.2019 136.712 16.2019Z" fill="#0a0a0a"/>
<path d="M152.518 41.8269C150.406 41.8269 148.588 41.3487 147.064 40.3922C145.548 39.4263 144.384 38.0958 143.569 36.4007C142.755 34.7057 142.348 32.7644 142.348 30.5769C142.348 28.361 142.764 26.4055 143.598 24.7104C144.431 23.0059 145.605 21.6754 147.12 20.7189C148.636 19.7625 150.421 19.2843 152.476 19.2843C154.133 19.2843 155.61 19.592 156.907 20.2076C158.205 20.8136 159.251 21.6659 160.047 22.7644C160.852 23.8629 161.33 25.146 161.481 26.6138H157.348C157.12 25.5911 156.6 24.7104 155.785 23.9718C154.98 23.2331 153.901 22.8638 152.547 22.8638C151.363 22.8638 150.326 23.1763 149.436 23.8013C148.555 24.4168 147.869 25.2975 147.376 26.4434C146.884 27.5797 146.637 28.9244 146.637 30.4775C146.637 32.0684 146.879 33.4415 147.362 34.5968C147.845 35.7521 148.527 36.647 149.407 37.2814C150.298 37.9159 151.344 38.2331 152.547 38.2331C153.352 38.2331 154.081 38.0864 154.734 37.7928C155.397 37.4898 155.951 37.0589 156.396 36.5002C156.851 35.9415 157.168 35.2691 157.348 34.4831H161.481C161.33 35.8941 160.87 37.1536 160.103 38.2615C159.336 39.3695 158.309 40.2407 157.021 40.8752C155.743 41.5096 154.242 41.8269 152.518 41.8269Z" fill="#0a0a0a"/>
<path d="M174.013 41.8269C171.968 41.8269 170.183 41.3581 168.658 40.4206C167.134 39.4831 165.95 38.1716 165.107 36.486C164.264 34.8004 163.843 32.8307 163.843 30.5769C163.843 28.3136 164.264 26.3345 165.107 24.6394C165.95 22.9443 167.134 21.628 168.658 20.6905C170.183 19.753 171.968 19.2843 174.013 19.2843C176.059 19.2843 177.844 19.753 179.369 20.6905C180.893 21.628 182.077 22.9443 182.92 24.6394C183.763 26.3345 184.184 28.3136 184.184 30.5769C184.184 32.8307 183.763 34.8004 182.92 36.486C182.077 38.1716 180.893 39.4831 179.369 40.4206C177.844 41.3581 176.059 41.8269 174.013 41.8269ZM174.028 38.2615C175.353 38.2615 176.452 37.9112 177.323 37.2104C178.194 36.5096 178.838 35.5769 179.255 34.4121C179.681 33.2473 179.894 31.9642 179.894 30.5627C179.894 29.1706 179.681 27.8922 179.255 26.7275C178.838 25.5532 178.194 24.611 177.323 23.9007C176.452 23.1905 175.353 22.8354 174.028 22.8354C172.692 22.8354 171.585 23.1905 170.704 23.9007C169.833 24.611 169.184 25.5532 168.758 26.7275C168.341 27.8922 168.133 29.1706 168.133 30.5627C168.133 31.9642 168.341 33.2473 168.758 34.4121C169.184 35.5769 169.833 36.5096 170.704 37.2104C171.585 37.9112 172.692 38.2615 174.028 38.2615Z" fill="#0a0a0a"/>
<path d="M191.972 28.432V41.3865H187.725V19.5684H191.801V23.1195H192.071C192.573 21.9642 193.359 21.0362 194.429 20.3354C195.509 19.6346 196.868 19.2843 198.506 19.2843C199.993 19.2843 201.295 19.5968 202.412 20.2218C203.53 20.8373 204.396 21.7559 205.012 22.9775C205.627 24.199 205.935 25.7095 205.935 27.5087V41.3865H201.688V28.0201C201.688 26.4386 201.276 25.2028 200.452 24.3127C199.628 23.4131 198.497 22.9632 197.057 22.9632C196.072 22.9632 195.196 23.1763 194.429 23.6025C193.672 24.0286 193.07 24.6536 192.625 25.4775C192.19 26.2918 191.972 27.2767 191.972 28.432Z" fill="#0a0a0a"/>
<path d="M210.772 41.3865V12.2956H215.161V37.6081H228.343V41.3865H210.772Z" fill="#0a0a0a"/>
<path d="M231.809 41.3865V19.5684H236.056V41.3865H231.809ZM233.954 16.2019C233.215 16.2019 232.581 15.9557 232.051 15.4632C231.53 14.9614 231.269 14.3648 231.269 13.6735C231.269 12.9727 231.53 12.3761 232.051 11.8837C232.581 11.3818 233.215 11.1309 233.954 11.1309C234.693 11.1309 235.322 11.3818 235.843 11.8837C236.373 12.3761 236.639 12.9727 236.639 13.6735C236.639 14.3648 236.373 14.9614 235.843 15.4632C235.322 15.9557 234.693 16.2019 233.954 16.2019Z" fill="#0a0a0a"/>
<path d="M244.817 28.432V41.3865H240.57V19.5684H244.647V23.1195H244.917C245.419 21.9642 246.204 21.0362 247.275 20.3354C248.354 19.6346 249.713 19.2843 251.351 19.2843C252.838 19.2843 254.14 19.5968 255.258 20.2218C256.375 20.8373 257.241 21.7559 257.857 22.9775C258.472 24.199 258.78 25.7095 258.78 27.5087V41.3865H254.533V28.0201C254.533 26.4386 254.121 25.2028 253.297 24.3127C252.473 23.4131 251.342 22.9632 249.902 22.9632C248.918 22.9632 248.042 23.1763 247.275 23.6025C246.517 24.0286 245.916 24.6536 245.471 25.4775C245.035 26.2918 244.817 27.2767 244.817 28.432Z" fill="#0a0a0a"/>
<path d="M273.461 19.5684V22.9775H261.543V19.5684H273.461ZM264.739 14.3411H268.987V34.9803C268.987 35.8042 269.11 36.4244 269.356 36.8411C269.602 37.2483 269.919 37.5276 270.308 37.6792C270.705 37.8212 271.136 37.8922 271.6 37.8922C271.941 37.8922 272.239 37.8685 272.495 37.8212C272.751 37.7739 272.95 37.736 273.092 37.7076L273.859 41.2161C273.612 41.3108 273.262 41.4055 272.808 41.5002C272.353 41.6043 271.785 41.6612 271.103 41.6706C269.986 41.6896 268.944 41.4907 267.978 41.074C267.012 40.6574 266.231 40.0134 265.634 39.1422C265.038 38.271 264.739 37.1773 264.739 35.861V14.3411Z" fill="#0a0a0a"/>
</svg>
